<?xml version="1.0" encoding="utf-8"?>
<!-- Generator: Adobe Illustrator 27.5.0, SVG Export Plug-In . SVG Version: 6.00 Build 0)  -->
<svg version="1.1" xmlns="http://www.w3.org/2000/svg" xmlns:xlink="http://www.w3.org/1999/xlink" x="0px" y="0px"
	 viewBox="0 0 500 500" style="enable-background:new 0 0 500 500;" xml:space="preserve">
<g id="BACKGROUND">
	<rect style="fill:#04103D;" width="500" height="500"/>
</g>
<g id="OBJECTS">
	<g>
		<path style="fill:#A2E0EB;" d="M202.664,394.251v-57.42l-48.262,31.11c-3.148,2.029-7.346,1.122-9.376-2.026l-43.944-68.171
			c-2.029-3.148-1.122-7.346,2.026-9.376l59.523-38.368l-59.523-38.369c-3.148-2.03-4.056-6.227-2.026-9.376l43.944-68.171
			c2.03-3.148,6.227-4.056,9.376-2.026l48.262,31.11v-57.42c0-3.746,3.037-6.783,6.782-6.783h81.107
			c3.746,0,6.783,3.037,6.783,6.783v57.42l48.262-31.11c3.148-2.03,7.346-1.122,9.376,2.026l43.944,68.171
			c2.03,3.148,1.122,7.346-2.026,9.376l-59.522,38.369l59.522,38.368c3.148,2.03,4.056,6.227,2.026,9.376l-43.944,68.171
			c-2.03,3.148-6.227,4.055-9.376,2.026l-48.262-31.11v57.42c0,3.746-3.037,6.783-6.783,6.783h-81.107
			C205.701,401.034,202.664,397.997,202.664,394.251z"/>
		
			<polygon style="fill:none;stroke:#FFFFFF;stroke-width:3;stroke-linecap:round;stroke-linejoin:round;stroke-miterlimit:10;" points="
			387.278,207.488 345.403,142.525 288.645,179.111 288.645,111.584 211.355,111.584 211.355,179.111 154.597,142.525 
			112.722,207.488 178.672,250 112.722,292.512 154.597,357.475 211.355,320.889 211.355,388.416 288.645,388.416 288.645,320.889 
			345.403,357.475 387.278,292.512 321.328,250 		"/>
	</g>
	<g>
		<path style="fill:#FFFFFF;" d="M233.882,256.075c2.286,0.015,5.549,0.064,9.082,0.129l-0.001-0.038
			C238.976,256.098,235.563,256.056,233.882,256.075z"/>
	</g>
	<g>
		<g>
			<g>
				<path style="fill:#007CD5;" d="M250,360.407L250,360.407c-2.738,0-4.976-2.185-5.043-4.922l-4.213-174.374h18.51l-4.213,174.374
					C254.976,358.223,252.738,360.407,250,360.407z"/>
				<g style="opacity:0.6;">
					<path style="fill:#007CD5;" d="M243.296,286.725l0.247,10.208c2.886-0.083,5.771-0.125,8.65-0.019
						c1.47,0.054,2.896,0.329,4.246,0.788l0.243-10.076c-0.554-0.132-1.112-0.248-1.678-0.343
						C252.939,286.939,248.053,286.793,243.296,286.725z"/>
					<path style="fill:#007CD5;" d="M241.517,213.07c7.973-0.141,15.001-0.266,16.973-0.301l0.407-16.833
						c-4.795-0.102-11.227-0.217-17.802-0.329L241.517,213.07z"/>
				</g>
			</g>
			<path style="fill:#1B3493;" d="M263.612,181.111h-27.225v-2.308c0-2.192,1.777-3.969,3.969-3.969h19.287
				c2.192,0,3.969,1.777,3.969,3.969V181.111z"/>
			<g>
				<path style="fill:#007CD5;" d="M240.301,174.834h19.399c2.667-2.555,4.336-6.144,4.336-10.129
					c0-7.751-6.284-14.035-14.035-14.035c-7.751,0-14.035,6.284-14.035,14.035C235.965,168.69,237.633,172.279,240.301,174.834z"/>
				<path style="opacity:0.3;fill:#007CD5;" d="M262.783,158.932c0.182,0.868,0.28,1.768,0.28,2.69c0,3.709-1.553,7.049-4.035,9.427
					h-18.055c-2.482-2.378-4.035-5.718-4.035-9.427c0-0.922,0.098-1.821,0.28-2.69c-0.797,1.762-1.252,3.713-1.252,5.773
					c0,3.985,1.668,7.574,4.336,10.129h19.399c2.667-2.555,4.336-6.144,4.336-10.129
					C264.035,162.645,263.58,160.694,262.783,158.932z"/>
				<path style="opacity:0.3;fill:#FFFFFF;" d="M256.59,156.732c0,1.433-2.95,0.27-6.59,0.27c-3.64,0-6.59,1.163-6.59-0.27
					c0-1.433,2.95-4.113,6.59-4.113C253.639,152.619,256.59,155.299,256.59,156.732z"/>
			</g>
		</g>
		<g>
			<path style="fill:#1B3493;" d="M289.456,205.869c-5.577-6.994-13.952-11.31-22.872-11.887c-3.612-0.234-46.3-0.874-53.568-1
				c-3.628-0.044-7.017,2.067-8.533,5.374c-2.876,6.276,2.058,13.094,8.738,13.031c2.993-0.028,43.339-0.751,45.725-0.792
				c5.422-0.094,10.852-0.537,15.527,2.853c7.592,5.505,8.771,16.87,2.397,23.803c-2.95,3.209-6.942,5.104-11.284,5.413
				c-0.318,0.023-3.47,0.079-7.822,0.155l-0.332,13.761c2.75,0.059,4.916,0.105,5.949,0.123c6.112,0.106,12.057-1.008,17.412-4.105
				c8.124-4.697,13.746-12.947,15.189-22.209C297.339,221.685,294.944,212.751,289.456,205.869z M212.839,201.445
				c-0.691,0-1.251-0.887-1.251-1.98c0-1.094,0.56-1.98,1.251-1.98c0.691,0,1.251,0.887,1.251,1.98
				C214.09,200.559,213.53,201.445,212.839,201.445z M244.479,335.688c-0.686,0.625-1.325,1.323-1.892,2.111
				c-2.693,3.742-3.014,9.931-2.967,13.271c0.018,1.274-1.019,2.309-2.293,2.309c-1.116,0-2.074-0.803-2.26-1.903
				c-0.597-3.533-0.952-10.896,0.563-15.386c1.192-3.535,3.82-7.507,8.625-9.722L244.479,335.688z M273.821,300.324
				c2.705,7.038,1.849,15.063-2.214,21.415c-4.253,6.649-8.241,9.977-16.004,10.566l0.195-8.052
				c6.356-1.627,10.808-8.273,10.742-15.071c-0.076-7.87-6.638-14.15-14.346-14.434c-7.273-0.267-14.586,0.398-21.865,0.333
				c-9.144-0.081-17.609-4.797-22.258-12.721c-4.867-8.294-4.561-19.112,0.729-27.133c4.217-6.394,11.417-11.152,19.156-11.747
				c1.453-0.112,7.475-0.251,14.288-0.383l0.318,13.18c-5.847-0.106-11.008-0.176-12.571-0.122
				c-8.384,0.288-14.578,7.594-13.507,15.935c0.579,4.511,3.508,8.556,7.519,10.666c2.687,1.414,5.52,1.665,8.48,1.716
				c3.325,0.058,18.44-0.037,22.523,0.646C263.453,286.53,270.68,292.155,273.821,300.324z"/>
			<g style="opacity:0.7;">
				<path style="fill:#FFFFFF;" d="M273.821,300.324c-2.924-7.606-9.391-13.001-17.087-14.849c0,0,10.243,2.668,15.857,15.978
					c2.93,6.947,1.439,15.827-2.624,22.178c-0.783,1.224-1.557,2.334-2.348,3.337c1.383-1.438,2.673-3.174,3.988-5.229
					C275.67,315.388,276.527,307.362,273.821,300.324z"/>
				<g>
					<path style="fill:#FFFFFF;" d="M289.456,205.869c-5.577-6.994-13.952-11.31-22.872-11.887
						c-0.819-0.053-3.663-0.127-7.635-0.211c0,0,20.533,0.825,28.867,13.99c4.708,7.438,7.883,15.816,6.527,24.521
						c-0.848,5.442-3.148,10.528-6.541,14.755c4.298-4.557,7.202-10.368,8.181-16.648
						C297.339,221.685,294.944,212.751,289.456,205.869z"/>
					<path style="fill:#FFFFFF;" d="M241.043,193.439c-11.993-0.204-24.406-0.395-28.027-0.458
						c-3.193-0.039-6.199,1.595-7.908,4.242c1.702-1.503,3.931-2.378,6.268-2.349C215.167,194.94,241.043,193.439,241.043,193.439z"
						/>
				</g>
				<path style="fill:#FFFFFF;" d="M210.34,282.361c-4.867-8.294-4.561-19.112,0.729-27.133
					c4.217-6.394,11.418-11.152,19.156-11.747c1.289-0.099,6.175-0.22,12.018-0.338l-0.001-0.045
					c-6.813,0.132-12.836,0.272-14.288,0.384c-7.738,0.595-14.939,5.353-19.156,11.747c-5.29,8.02-5.596,18.839-0.729,27.133
					c4.649,7.924,13.114,12.64,22.258,12.721c0.713,0.006,1.427,0.001,2.141-0.005C223.375,294.952,214.968,290.247,210.34,282.361z
					"/>
				<path style="fill:#FFFFFF;" d="M235.823,351.528c-0.926-5.262-0.329-11.259,1.186-15.75c0.99-2.935,3.882-5.845,7.276-8.127
					l-0.031-1.283c-4.805,2.215-7.433,6.187-8.625,9.722c-1.514,4.49-1.16,11.853-0.563,15.386c0.186,1.1,1.144,1.903,2.26,1.903
					c0.411,0,0.793-0.117,1.127-0.306C237.009,353.283,235.945,352.22,235.823,351.528z"/>
			</g>
			<path style="opacity:0.7;fill:#1B3493;" d="M242.522,337.899c-0.563,0.545-1.098,1.131-1.574,1.792
				c-2.693,3.743-3.014,9.931-2.967,13.271c0.002,0.11-0.015,0.215-0.028,0.32c0.969-0.274,1.683-1.157,1.668-2.213
				C239.574,347.758,239.892,341.65,242.522,337.899z M243.244,284.559c-4.63-0.065-9.126-0.057-10.763-0.086
				c-2.96-0.051-5.793-0.302-8.48-1.716c-4.01-2.11-6.94-6.155-7.519-10.666c-0.487-3.794,0.541-7.364,2.581-10.167
				c-3.113,2.973-4.826,7.35-4.221,12.059c0.579,4.511,3.884,7.488,7.931,9.526C228.364,286.324,243.244,284.559,243.244,284.559z
				 M267.444,242.93c4.315-0.574,8.747-2.469,11.697-5.679c6.373-6.933,5.194-18.298-2.397-23.803
				c-3.841-2.785-8.19-2.982-12.627-2.912c3.641,0.074,7.174,0.605,10.356,2.912c7.592,5.505,8.771,16.87,2.397,23.803
				c-2.95,3.209-6.942,5.104-11.284,5.413c-0.318,0.023-3.47,0.079-7.822,0.155C257.764,242.819,263.778,243.418,267.444,242.93z
				 M268.361,309.471c-0.126-7.869-6.189-14.44-13.897-14.723c-1.574-0.058-3.15-0.066-4.726-0.054
				c0.819,0.009,1.637,0.024,2.455,0.054c7.708,0.283,14.27,6.564,14.346,14.434c0.066,6.798-4.385,13.444-10.742,15.071
				C255.797,324.253,268.583,323.32,268.361,309.471z"/>
		</g>
	</g>
</g>
</svg>
